<?xml version="1.0" encoding="UTF-8" standalone="no"?>
<svg
   width="57.27639"
   height="100"
   viewBox="0 0 57.27639 100"
   version="1.1"
   id="svg1"
   sodipodi:docname="logo.svg"
   inkscape:version="1.4.2 (ebf0e940, 2025-05-08)"
   xmlns:inkscape="http://www.inkscape.org/namespaces/inkscape"
   xmlns:sodipodi="http://sodipodi.sourceforge.net/DTD/sodipodi-0.dtd"
   xmlns="http://www.w3.org/2000/svg"
   xmlns:svg="http://www.w3.org/2000/svg"
   xmlns:rdf="http://www.w3.org/1999/02/22-rdf-syntax-ns#"
   xmlns:cc="http://creativecommons.org/ns#"
   xmlns:dc="http://purl.org/dc/elements/1.1/">
  <defs
     id="defs1" />
  <sodipodi:namedview
     id="namedview1"
     pagecolor="#ffffff"
     bordercolor="#000000"
     borderopacity="0.25"
     inkscape:showpageshadow="2"
     inkscape:pageopacity="0.0"
     inkscape:pagecheckerboard="0"
     inkscape:deskcolor="#d1d1d1"
     inkscape:zoom="2.1063291"
     inkscape:cx="197.26262"
     inkscape:cy="49.84976"
     inkscape:window-width="2560"
     inkscape:window-height="1387"
     inkscape:window-x="0"
     inkscape:window-y="25"
     inkscape:window-maximized="0"
     inkscape:current-layer="Page-1" />
  <!-- Generator: Sketch 52.4 (67378) - http://www.bohemiancoding.com/sketch -->
  <title
     id="title1">logo_white copy</title>
  <desc
     id="desc1">Created with Sketch.</desc>
  <g
     id="Page-1"
     stroke="none"
     stroke-width="1"
     fill="none"
     fill-rule="evenodd">
    <path
       d="M 29.019625,62.509735 C 15.206999,62.509735 4.6459976,45.677717 4.6459976,24.359191 4.6459976,3.0440524 13.445703,0 29.019625,0 c 15.573921,0 23.611527,3.0440524 23.611527,24.359191 0,21.318526 -11.052132,38.150544 -23.611527,38.150544 z m 27.696379,19.456201 c 1.134681,1.886026 0.491131,4.320591 -1.432746,5.431213 -0.646938,0.372465 -1.354843,0.548539 -2.052587,0.548539 -1.385328,0 -2.736783,-0.697525 -3.492109,-1.953747 -1.304036,-2.160295 -2.638556,-3.697558 -4.142432,-5.102766 -1.503876,-1.398436 -3.210978,-2.651272 -5.16534,-4.110656 -0.955164,-0.707683 -1.906941,-1.320557 -2.855331,-1.842007 0.111774,0.203162 0.223549,0.409711 0.33871,0.623032 2.743558,5.160329 5.57518,12.321809 5.588728,20.478786 0,2.187384 -1.812102,3.96167 -4.047594,3.96167 -2.238878,0 -4.05098,-1.774286 -4.05098,-3.96167 0.01355,-6.20323 -2.208395,-12.169438 -4.552273,-16.591609 -0.758712,-1.442455 -1.524198,-2.715607 -2.215169,-3.778824 -0.653711,1.012427 -1.378552,2.214472 -2.103393,3.568889 -2.381137,4.442488 -4.677596,10.503504 -4.664048,16.801544 0,2.187384 -1.812102,3.96167 -4.047593,3.96167 -2.235491,0 -4.047594,-1.774286 -4.047594,-3.96167 0.01355,-8.156977 2.841783,-15.318457 5.588728,-20.478786 0.111774,-0.213321 0.223549,-0.41987 0.33871,-0.623032 -0.951777,0.52145 -1.900167,1.134324 -2.855332,1.842007 -1.957748,1.459384 -3.66485,2.71222 -5.165339,4.110656 -1.503875,1.405208 -2.8417831,2.942471 -4.1458196,5.106152 -1.134681,1.886026 -3.617431,2.512444 -5.5413082,1.401822 C 0.06662795,86.286527 -0.57353541,83.851962 0.56114567,81.965936 2.2546995,79.145363 4.1582541,76.944435 6.1092281,75.136288 8.0635893,73.324755 10.031499,71.895845 11.941828,70.466935 12.846185,69.789727 13.774253,69.166695 14.722643,68.601226 13.774253,68.035757 12.846185,67.409339 11.941828,66.73213 7.5724586,63.471371 3.7755109,59.072901 0.56114567,53.733112 -0.57353541,51.8437 0.06662795,49.412522 1.9938922,48.3019 c 1.9238772,-1.110622 4.4066272,-0.484205 5.5413082,1.401821 2.7842026,4.628721 5.9443746,8.211154 9.3077716,10.716825 3.60727,2.671588 7.150185,3.995531 10.794713,4.205466 0.331936,-0.01016 0.66726,-0.02032 0.999196,-0.02032 0.335324,0 0.667261,0.01016 0.999197,0.02032 3.644528,-0.209935 7.19083,-1.533878 10.794712,-4.205466 3.363398,-2.505671 6.526957,-6.088104 9.307772,-10.716825 1.138069,-1.886026 3.617432,-2.512443 5.544696,-1.401821 1.923877,1.110622 2.567427,3.5418 1.432746,5.427826 -3.214365,5.343175 -7.0147,9.741645 -11.384069,13.002404 -0.904357,0.677209 -1.832425,1.303627 -2.777428,1.869096 0.945003,0.565469 1.873071,1.188501 2.777428,1.865709 1.913716,1.42891 3.878239,2.85782 5.835987,4.669353 1.950974,1.808147 3.851142,4.009075 5.548082,6.829648 z M 23.312348,48.684522 c -2.235491,0 -4.047594,1.777673 -4.047594,3.965056 0,2.194156 1.812103,3.968442 4.047594,3.968442 2.235491,0 4.047594,-1.774286 4.047594,-3.968442 0,-2.187383 -1.812103,-3.965056 -4.047594,-3.965056 z m 10.649067,0 c -2.235491,0 -4.047594,1.777673 -4.047594,3.965056 0,2.194156 1.812103,3.968442 4.047594,3.968442 2.235491,0 4.047593,-1.774286 4.047593,-3.968442 0,-2.187383 -1.812102,-3.965056 -4.047593,-3.965056 z"
       id="logo_white-copy"
       fill="#3ca0ff"
       fill-rule="nonzero"
       sodipodi:nodetypes="sssssscsccccccscccccscccccccccccccccccscccccccccsssssssssss" />
  </g>
  <metadata
     id="metadata1">
    <rdf:RDF>
      <cc:Work
         rdf:about="">
        <dc:title>logo_white copy</dc:title>
      </cc:Work>
    </rdf:RDF>
  </metadata>
</svg>
